<svg width="120" height="79" viewBox="0 0 120 79" fill="none" xmlns="http://www.w3.org/2000/svg">
<path d="M11.4847 1.22559C11.4847 1.53156 11.4847 1.83754 11.4082 6.12584C11.3317 10.4141 11.1787 18.6755 9.87603 29.5863C8.57331 40.4971 6.12551 53.8071 4.55854 61.7347C2.99157 69.6622 2.37962 71.804 2.06437 73.2899C1.74912 74.7757 1.74912 75.5407 1.28552 77.256" stroke="black" stroke-width="2" stroke-linecap="round"/>
<path d="M20.293 11.8884C24.8873 11.8884 34.8037 12.1944 38.3595 13.4275C42.1345 14.7367 43.4638 17.9059 45.1675 20.2239C45.9482 21.2861 45.791 22.8525 45.7145 24.394C45.4126 30.4786 37.6131 37.8361 33.5404 42.9055C20.8389 58.7155 19.6811 59.9452 19.0599 60.6382C18.3665 61.4118 21.5169 61.9572 26.1251 62.2632C35.0446 62.8554 43.7512 63.8116 48.6167 63.7351C50.8814 63.5056 52.7311 63.348 55.0468 63.2715C55.9856 63.195 56.4446 63.042 58.3082 62.8844" stroke="black" stroke-width="2" stroke-linecap="round"/>
<path d="M89.3695 13.7428C81.7154 13.7428 66.9637 14.5077 66.7319 16.0492C65.6772 23.0626 68.5075 33.8213 68.737 35.5204C68.8265 36.1832 69.4254 36.3016 70.1208 36.2274C74.5453 35.7554 79.467 35.838 82.6334 37.2241C87.3398 39.2845 88.8966 42.7827 90.6768 46.9458C92.3292 50.8099 91.6875 54.8363 91.5345 57.2261C91.3886 59.5049 89.3834 62.0963 86.5322 64.7967C81.1869 67.5204 78.104 67.8264 71.2381 67.831C69.7499 67.678 69.138 67.372 68.5075 66.5932" stroke="black" stroke-width="2" stroke-linecap="round"/>
<path d="M113.013 20.2332C113.013 19.9272 111.636 19.7696 109.321 19.9226C106.69 20.0963 105.141 23.3115 102.054 29.8622C99.1577 36.0061 98.9568 39.6858 98.565 42.938C98.0647 47.0914 98.4839 52.9726 98.7945 57.1497C99.1928 62.5065 100.802 65.1931 102.42 67.8194C103.25 69.1668 104.817 69.6808 106.356 70.1444C108.421 70.7664 110.533 69.843 112.151 68.4592C116.165 65.0256 116.407 60.7426 117.568 57.7176C118.11 56.3051 118.113 54.5489 118.266 52.2401C118.481 48.9881 119.04 41.4614 118.81 32.2729C117.343 25.801 116.11 23.9513 114.949 22.0945C114.715 21.6286 114.562 21.1697 113.477 20.2332" stroke="black" stroke-width="2" stroke-linecap="round"/>
</svg>
