<svg width="20" height="53" viewBox="0 0 20 53" fill="none" xmlns="http://www.w3.org/2000/svg">
<path d="M10.0001 1C9.34006 1 8.01006 1.33 6.18006 2.325C4.21775 3.39194 3.34006 5.99 2.34006 9.14C0.684777 14.3541 2.33006 18.99 2.99506 21.15C3.7534 23.6132 4.99006 25.66 6.98506 26.825C7.95633 27.3922 8.98006 27.66 9.82006 27.17C15.448 23.887 10.6801 12.36 8.84006 7.185C8.01722 4.87075 6.67006 3.01 6.00506 2.005C4.26701 -0.621677 6.32006 11.62 8.82506 18.81C10.7358 24.2942 12.6601 30.3 15.6551 39.965C16.6601 42.98 17.3301 44.99 17.9951 46.985C18.3301 47.99 18.6601 48.98 19.0001 52" stroke="black" stroke-width="2" stroke-linecap="round"/>
</svg>
