<svg width="287" height="79" viewBox="0 0 287 79" fill="none" xmlns="http://www.w3.org/2000/svg">
<path d="M87.0025 32C87.0025 32.8433 87.0025 37.9161 87.6216 45.3656C87.8602 48.2366 89.4788 49.02 90.7356 49.0328C96.3284 49.0896 99.909 42.2478 103.248 37.1303C104.086 35.8461 104.911 34.5811 105.13 34.5619C109.505 34.1789 96.2321 51.4989 90.7669 61.1525C89.1036 63.9189 87.015 67.7522 84.9327 72.2181C84.0885 74.1539 83.6758 75.4189 82 78" stroke="black" stroke-width="2" stroke-linecap="round"/>
<path d="M1.29068 23.2031C1.29068 23.6156 1.29068 24.0281 1.29068 29.3968C1.29068 34.7656 1.29068 45.0781 3.29068 53.2031" stroke="black" stroke-width="2" stroke-linecap="round"/>
<path d="M22.0943 31.2031C20.4118 32.89 19.5643 40.5326 18.5143 48.207C18.1106 51.1583 18.2993 55.8176 18.7167 57.364C19.8445 61.5417 25.0291 49.1208 27.9892 42.0981C28.4193 39.753 28.4193 36.8008 27.7931 34.8582C27.1669 32.9156 25.9146 32.0721 23.3593 31.2031" stroke="black" stroke-width="2" stroke-linecap="round"/>
<path d="M54.2907 21.2031C54.2907 21.621 54.2907 22.0389 54.2907 27.478C54.2907 32.9172 54.2907 43.365 54.4557 48.1203C54.6207 52.8756 54.9507 51.6218 55.2907 47.7973" stroke="black" stroke-width="2" stroke-linecap="round"/>
<path d="M55.2907 44.2031C51.8586 44.2031 44.9556 45.0351 39.9824 49.2269C38.7 50.3078 38.0397 51.7419 37.5994 53.0089C37.159 54.2759 37.159 55.524 37.8001 56.5829C38.4412 57.6419 39.7234 58.474 41.666 58.9026C43.6087 59.3312 46.173 59.3312 48.1351 58.7072C50.0973 58.0832 51.3794 56.8351 52.4673 55.5681C53.5552 54.3011 54.41 53.053 55.2907 51.7671" stroke="black" stroke-width="2" stroke-linecap="round"/>
<path d="M72.9717 35.914C72.9717 38.4046 73.3867 42.1593 73.393 44.4496C73.3999 46.9462 69.2113 47.178 66.9098 47.7976C64.3473 48.4873 63.753 52.1718 63.3317 54.6687C63.1224 55.9091 63.7405 57.1655 64.5768 57.8038C65.4132 58.4421 66.6582 58.4421 67.5072 57.8226C71.4378 54.9541 72.1165 44.3245 73.1792 35.307C73.9862 28.4595 75.0594 55.4884 76.9459 60.9265C77.5748 62.1843 78.4048 63.4233 79.455 64.2681C80.5051 65.113 81.7502 65.526 84.2907 67.2031" stroke="black" stroke-width="2" stroke-linecap="round"/>
<path d="M124.291 31.2031C122.591 32.4944 116.675 40.2813 112.58 46.6205C111.252 48.6753 116.611 49.8944 118.739 51.1922C119.778 51.8262 120.023 53.3509 119.608 54.2313C114.937 56.8465 110.248 59.0248 107.699 59.677C106.415 59.8987 105.15 59.8987 101.291 61.2031" stroke="black" stroke-width="2" stroke-linecap="round"/>
<path d="M147.291 24.2031V61.2031" stroke="black" stroke-width="2" stroke-linecap="round"/>
<path d="M153.25 47.0221C155.82 45.35 158.842 40.2829 158.849 37.3314C158.852 35.9874 157.151 35.2159 155.853 35.2032C153.143 35.1768 151.106 38.1421 149.602 40.6693C148.193 43.0351 148.084 46.5787 148.51 50.3727C149.789 53.3306 151.946 55.8768 155.162 57.7769C157.099 58.4229 159.656 58.4229 162.291 57.1562" stroke="black" stroke-width="2" stroke-linecap="round"/>
<path d="M172.291 60.2031C172.291 52.0118 173.139 36.7378 175.061 34.3509C177.408 32.3944 179.992 31.077 183.194 30.4248C185.122 30.2031 187.668 30.2031 190.291 30.2031" stroke="black" stroke-width="2" stroke-linecap="round"/>
<path d="M180.291 45.2031C179.424 45.2031 178.558 45.2031 174.863 45.2031C171.169 45.2031 164.672 45.2031 159.291 45.2031" stroke="black" stroke-width="2" stroke-linecap="round"/>
<path d="M198.291 31.2031C198.291 32.0661 198.291 39.8469 198.043 51.6096C197.796 56.0361 197.301 57.3308 196.798 58.645C196.296 59.9592 195.801 61.2538 195.291 65.2031" stroke="black" stroke-width="2" stroke-linecap="round"/>
<path d="M186.291 42.2031H204.291" stroke="black" stroke-width="2" stroke-linecap="round"/>
<path d="M247 1C247 1.33 247 1.66 247 5.625C247 9.59 247 17.18 248 26" stroke="black" stroke-width="2" stroke-linecap="round"/>
<path d="M269 2V39" stroke="black" stroke-width="2" stroke-linecap="round"/>
<path d="M236 45C236 49.3 237.32 58.64 240.65 63.15C245.433 69.6273 253.96 70.32 260.97 71.83C270.767 73.9402 274.98 71 279.315 69.015C282.3 65.38 284.33 61.68 284.995 59.185C285.33 58.01 285.66 57.02 286 54" stroke="black" stroke-width="2" stroke-linecap="round"/>
</svg>
