<svg width="203" height="120" viewBox="0 0 203 120" fill="none" xmlns="http://www.w3.org/2000/svg">
<path d="M163.498 4.8192C162.238 4.8192 150.875 4.8192 131.178 4.18903C115.158 3.67651 88.5842 1 55.5195 1.94525C34.8709 2.53555 24.7653 9.24948 19.0461 14.329C8.84689 23.3874 4.38988 40.376 1.50638 60.1022C0.40333 67.6482 1.18175 79.0645 3.07225 86.1682C8.06785 104.94 43.002 111.68 78.406 118.431C95.2035 121.634 105.522 109.885 115.72 102.553C124.407 96.3053 135.427 92.6991 144.373 88.221C153.273 83.7664 159.64 76.773 173.294 67.8742C184.961 60.2706 195.942 58.9373 198.806 52.3014C204.696 38.6582 198.52 25.2137 195.665 20.4493C188.342 13.1069 175.681 6.767 163.851 2.91915C161.607 2.27943 159.717 1.64926 155.859 1" stroke="black" stroke-width="2" stroke-linecap="round"/>
<path d="M58.4698 37.2824C57.2094 37.2824 54.6697 38.5427 51.8053 42.0278C50.2632 43.9039 50.8314 47.4033 51.7766 49.3415C55.8482 57.6903 64.8288 62.0881 65.4685 65.8978C61.6779 73.5457 51.5188 79.9047 43.2216 83.1033C41.3025 83.743 39.412 84.3732 35.5546 83.1128" stroke="black" stroke-width="2" stroke-linecap="round"/>
<path d="M75.6562 25.8248C75.6562 46.6395 75.6562 83.132 75.9713 79.0072C76.6857 69.6555 78.8261 59.6248 83.5906 51.3085C84.6098 49.5294 87.0756 49.3893 89.3099 49.3798C91.5441 49.3702 94.0648 50.0004 96.9387 54.4211C99.8127 58.8418 102.964 67.034 104.587 73.1448C106.21 79.2555 106.21 83.0365 106.21 85.0225" stroke="black" stroke-width="2" stroke-linecap="round"/>
<path d="M129.125 46.8304C128.495 46.8304 127.865 46.8304 127.225 47.7757C125.484 50.3489 125.306 61.3816 126.251 74.1186C126.549 78.1348 129.087 76.773 130.691 75.1785C133.555 71.6934 135.484 67.8551 136.439 61.8399C136.763 57.7152 136.763 51.4135 132.944 44.9208" stroke="black" stroke-width="2" stroke-linecap="round"/>
<path d="M138.673 20.096C138.673 21.3563 138.673 32.7185 138.988 49.8953C139.303 56.3593 139.933 58.2498 140.258 60.169C140.583 62.0881 140.583 63.9786 144.402 65.9264" stroke="black" stroke-width="2" stroke-linecap="round"/>
<path d="M136.763 20.096C138.024 20.096 141.824 20.096 147.543 20.4111C152.094 20.6618 156.471 24.5263 160.29 30.5511C162.291 33.7073 161.588 38.4664 160.643 41.369C153.969 48.0908 146.35 51.91 137.117 54.4593C134.873 55.099 132.982 55.7292 131.035 56.3784" stroke="black" stroke-width="2" stroke-linecap="round"/>
</svg>
