<svg width="54" height="52" viewBox="0 0 54 52" fill="none" xmlns="http://www.w3.org/2000/svg">
<path d="M50 2C49.835 2 49.67 2 43.5625 2C37.455 2 25.41 2 18.6275 2.165C8.95603 2.40028 7.00999 3.83 4.59249 4.4975C4.00361 4.6601 3.50999 4.83 3.17249 5.245C2.42378 6.16563 2.33499 7.825 2.08499 12.1275C1.5291 21.6942 2.49499 31.3 3.32749 36.5475C3.71821 39.0104 3.99999 39.995 4.41249 41.1575C5.06084 42.9847 7.32499 43.995 9.31749 45.24C12.0078 46.921 17.955 48.66 27.5925 49.66C45.0662 51.4731 47.82 48.67 49.91 47.0075C51.7595 45.5363 51.5 43.01 51.915 40.76C52.231 39.0468 52.33 35.855 52.7475 30.13C52.17 14.52 51.17 9.51 50.585 6.1825C50.5 5.015 50.5 3.53 51 1.5" stroke="black" stroke-width="2" stroke-linecap="round"/>
<path d="M17.5 12.5C17.5 20.43 17.995 34.17 19.075 33.5875C22.98 33 27.99 32.835 31.5525 32.585C34.125 32.5 38.25 32.5 41.5 32" stroke="black" stroke-width="2" stroke-linecap="round"/>
</svg>
