<svg width="331" height="108" viewBox="0 0 331 108" fill="none" xmlns="http://www.w3.org/2000/svg">
<path d="M7 5C7 24.82 9.64 66.28 12.99 78.62C14.5133 84.2311 15 92.28 16.98 100.28C20.5133 114.556 54.2 99 88.77 97.34C109.918 96.3245 148.88 97 170.26 97.33C194.298 97.701 208.22 99 226.54 98.67C260.815 98.0526 308.96 95.68 320.29 93.68C338.508 90.4641 325.68 49.72 324.67 41.03C324.195 36.9465 323 30.38 322.01 23.05C321.624 20.1908 319.04 19.68 294.92 19.34C270.8 19 224.6 19 199.81 18.67C175.02 18.34 173.04 17.68 154.86 17.34C136.68 17 102.36 17 83.69 17.33C46.48 19 15.02 18.34 11.03 17.01C9.02 16.34 7.04 15.68 1 17" stroke="black" stroke-width="2" stroke-linecap="round"/>
<path d="M25.0001 19C25.0001 20.32 25.0001 30.9 25.3301 44.91C25.4272 49.0321 26.3201 47.04 27.3201 44.37C29.5665 38.3719 31.6601 32.36 32.9901 27.37C33.6194 25.0088 34.3201 23.04 35.9801 26.31C50.9879 55.8737 49.6601 82.98 51.6501 84.33C55.9021 87.2146 58.9801 66.44 61.9801 58.03C62.7796 55.7887 63.0001 75.36 63.9901 74.27C92.7955 42.5549 69.6601 17.7 70.9901 15.34C82.5894 -5.24222 74.3201 64.98 77.3101 66.33C87.581 70.9674 85.6601 50.36 86.6601 51.31C89.2745 53.7937 87.0001 64.8 87.3301 68.91C87.6601 73.02 88.3201 71.04 88.6601 67.38C89.4876 58.4719 90.3201 43.76 92.3201 28.44C94.0093 15.5008 95.6601 94.3 97.6501 98.31C98.3203 99.6605 100.96 97.04 101.98 94.7C104.011 90.0401 104.32 82.38 106.98 77.36C107.635 76.1243 109.64 80.92 110.98 81.97C117.866 87.3661 119 77.56 123.98 32.48C128.064 -4.49304 127.66 76.98 129.32 78C133.955 80.8477 133 60.42 133 48.41C133 39.7982 129 79.6 129 79.37C129 72.54 129 52.08 128.67 43.19C128.459 37.5169 127 62.12 127.33 92.14C127.385 97.1779 129 75.84 129 54.46C129 50.24 129 59.48 129 60.94C129 76.8537 131 31.06 131.99 29.32C141.363 12.8458 138.98 67.62 142.97 72.31C155.503 87.0413 153 31.72 153 30.65C153 26.44 153 48.72 153.33 53.55C153.399 54.5597 155 40.42 155 33.36C155 4.41248 157 71.64 157.99 74.98C158.335 76.1425 160.96 74.36 162.64 71.04C166.753 62.913 167 53.04 167 54.96C167 60.84 167 76.68 167 76.59C167 60 166.34 39.7 165.01 35.69C164.431 33.9445 163 50.88 163 67.23C163 73.4551 165 46.4 164.34 41.02C163.044 30.4535 161 70.9 161 83.92C161 102.885 152.34 35.02 151.01 33.34C149.007 30.81 149 53.52 149 72.55C149 89.3918 145 34.36 144.34 32.67C142.19 27.1636 141 50.92 141 60.94C141 70.2035 139 39.72 137.01 33.34C136.049 30.2595 135 56.82 135 81.84C135 87.3397 127.72 52.48 121.35 42C111.798 26.2846 120.32 84.28 121 88.35C122.627 98.0851 117.7 57.8 112.04 38.79C110.251 32.7797 108.36 34.96 107.68 43.24C107 51.52 107 66.04 107.33 70.55C108.459 85.9827 104.34 37.02 102.68 36.99C75.8806 36.5057 99.6601 90.98 100.66 89.03C113.734 63.5351 97.6801 47.7 95.0201 44.02C92.9753 41.1912 91.0001 60.88 91.0001 77.56C91.0001 84.0934 86.3601 45.8 82.0301 27.12C79.2878 15.2896 79.6601 64.98 80.6601 65.67C93.2477 74.3555 77.0201 35.72 73.6901 28.71C72.7485 26.7279 71.6801 28.96 71.3401 32.29C69.3092 52.1806 75.0001 70.3 75.0001 72.99C75.0001 85.6888 70.3401 52.36 68.6801 51.33C53.3766 41.8345 66.3201 82.28 67.9901 87.31C69.9429 93.192 61.0601 62.46 51.7301 46.43C44.368 33.7811 48.3201 80.24 50.6601 87.68C53.818 97.7206 48.3601 60.42 44.3601 52.37C43.7105 51.0629 43.0001 62.8 43.3301 68.89C43.6601 74.98 44.3201 76.96 44.6601 71.05C45.7957 51.3097 44.3401 33.04 43.0101 26.05C42.43 23.0015 41.6801 21.04 40.6801 22.99C28.7473 46.2589 37.6601 76.96 38.6601 84.61C39.1404 88.2844 39.0001 91.6 39.0001 84.72C39.0001 39.0352 36.3401 29.02 34.6801 27.34C32.0478 24.676 31.0001 50.82 31.0001 76.83C31.0001 86.7202 24.3401 36.36 23.0101 33.35C22.166 31.4399 21.0001 51.52 21.3301 71.54C21.4832 80.8301 21.6801 38.44 16.0201 25.65C14.141 21.4038 15.0001 45.36 15.3301 51.86C15.6601 58.36 16.3201 55.72 16.6601 50.73C17.0001 45.74 17.0001 38.48 17.0001 35.73C17.0001 23.1704 23.6401 81.56 30.3101 99.29C31.0232 101.186 33.0001 83.8 32.6701 66.11C32.6514 65.1117 31.0001 80.24 32.3201 85.99C36.8796 105.852 39.0001 41.08 40.3201 33.7C44.7991 8.65804 54.3201 71.62 56.6501 77.3C57.5226 79.427 59.0001 60.46 59.6601 44.43C59.7896 41.2826 63.6601 54.98 64.9901 56.33C67.9018 59.2856 67.0001 39.76 67.0001 26.75C67.0001 23.1392 65.0001 46.9 65.0001 54.97C65.0001 56.8 65.0001 39.28 65.0001 37.75C65.0001 10.552 68.9801 84.92 71.9801 92.96C86.1525 130.942 57.6801 -0.299998 56.0101 1.96C44.0753 18.1113 60.9601 47.56 66.9601 57.29C74.0589 68.802 67.0201 26.38 62.7001 19.05C60.8821 15.9654 57.7201 15.68 55.3701 17.32C39.5109 28.3876 50.3201 59.6 53.3201 65.34C56.692 71.7916 57.0001 45.74 56.0101 34.74C55.6633 30.8868 53.0401 31 51.0301 38.26C45.122 59.5997 45.0001 80.94 45.0001 81.36C45.0001 86.88 45.0001 58.68 44.3401 52.15C44.0634 49.4129 41.0001 64.9 41.0001 77.92C41.0001 85.5088 46.9601 58.4 55.3001 47.37C59.2802 42.1062 68.9401 39.68 79.2601 38.01C86.1967 36.8875 90.9801 40.32 94.6401 43.64C96.5747 45.3949 97.6401 48.28 98.6501 50.63C99.6601 52.98 100.32 54.96 100.66 51.69C101 48.42 101 39.84 101 39.71C101 39.58 101 48.16 101.33 51.59C102.635 65.1553 109 11.02 109 9.01C109 0.299405 103.68 37.56 103.33 67.91C103.151 83.449 103.68 25.02 100.36 22.02C98.6943 20.5148 95.7201 21 93.7001 22.65C82.5341 31.7707 87.6801 57.56 87.3301 76.95C87.3121 77.9439 89.0001 65.76 88.3401 54.07C88.1745 51.1371 85.0001 67.6 85.9901 76.61C86.2746 79.1998 88.9601 77.04 90.9701 74.7C99.5904 64.6644 102.32 55.02 105.31 51.69C106.745 50.0922 108.96 49.68 109.98 50.33C112.359 51.846 114.3 66.22 119.96 84.21C122.112 91.0491 123.64 92.96 125.64 89.03C132.256 76.0291 133 61.7 133.33 57.69C133.462 56.0851 135 69.58 135 81.59C135 84.2434 137 71.04 137 68.34C137 67.08 137 76.2 137.33 78.61C139.352 93.3761 140.98 31.72 144.31 25.04C145.364 22.9264 147 44.18 147 54.31C147 59.36 147 23.52 147 21.48C147 1.08 147 63.02 147.66 56.72C148.816 45.6824 151 36.36 151.33 31.37C151.487 29.0021 152.32 27.04 152 31.63C150.895 47.4863 149 68.9 149 69.05C149 78.8 149 29.6 149 24.53C149 9.14 149.66 64.3 150.99 70.29C151.591 72.9963 152.32 74.96 152.99 73.01C155.59 65.4429 155 45.8 154.34 27.45C153.68 22.3 152.36 25.6 151.68 34.56C151 43.52 151 58.04 153 73" stroke="black" stroke-width="2" stroke-linecap="round"/>
</svg>
