<svg width="360" height="92" viewBox="0 0 360 92" fill="none" xmlns="http://www.w3.org/2000/svg">
<path d="M11 11C11 32.8 11.66 74.98 13.98 77.98C24.3781 91.4258 56.28 71 67.29 68.68C84.6011 65.0323 106.92 61 137.13 59.34C155.316 58.3407 187.68 59 207.31 59.66C241.783 60.8191 264.16 66.96 280.96 69.33C291.784 70.857 300.96 73 319.59 78.64C333.277 82.7835 340.96 86.32 349.3 88.66C351.577 89.2988 354.28 89 355.64 81.41C362.765 41.6472 353.68 33.04 350.02 25.69C347.904 21.4411 313.3 23 264.67 22.01C228.024 21.264 217.72 15.68 202.39 14.67C190.943 13.9158 179.04 11.68 130.86 10.67C93.22 9.00002 46.36 9.66002 35.76 10.66C27.8 11 14.6 11 1 11" stroke="black" stroke-width="2" stroke-linecap="round"/>
<path d="M327 29C327 38.26 329.64 62.24 334.32 84.59C335.231 88.938 335 90.96 335.33 90.66C346.424 80.5744 335.68 46.44 334.67 31.38C334.467 28.3488 333.68 25.72 333.34 29.97C330.974 59.5472 335 66.98 335.66 68.99C336.527 71.6303 339 49.16 339 27.8C339 11.261 346.32 68.98 348.32 67.03C358.234 57.3636 347.68 38.38 344.69 30.72C343.429 27.4889 341.04 26.36 338.7 27.66C323.683 36.0027 327 55.64 326.67 58.65C325.871 65.9365 322.34 43.02 320.68 42.66C313.566 41.1171 317 62.26 316.34 69.96C315.787 76.4067 312.34 55.02 310.68 53.01C308.75 50.6732 307 60.96 307 64.98C307 68.88 305.02 47.1 301.69 34.41C297.614 18.8789 299.66 71.64 300.99 74.32C304.925 82.2486 301.68 55.04 299.34 50.99C298.35 49.2761 299 58.88 298.67 60.62C297.074 69.0331 292.36 35.08 287.35 23.37C286.344 21.0183 285.68 19.04 285.01 19.34C273.076 24.6835 283.66 49.64 284.33 51.66C285.786 56.0507 281.68 40.36 278.69 36.69C277.451 35.1688 275.04 36.32 274.02 40.62C273 44.92 273 52.84 273 54.94C273 56.8 271.68 44.38 269.02 38.7C268.295 37.1527 266.36 40.28 265.68 43.62C262.883 57.3582 267.66 64.98 268.66 66.66C273.246 74.3642 267 47.04 265.01 41.34C264.768 40.6469 263.68 44.28 263.01 44.32C254.397 44.8342 256.34 29.02 255.01 28C242.529 18.428 253.66 58.98 254.66 60.99C258.498 68.704 249.04 33.76 241.69 21.37C240.307 19.0391 239.68 17.04 238.35 16.02C237.02 15 235.04 15 234.02 20.28C233 25.56 233 36.12 233 40.24C233 46.2468 228.34 23.02 226.68 21.34C219.872 14.4499 224.32 40.96 225 46C226.647 58.2071 222.34 25.02 220.68 23.67C211.953 16.5725 218.32 44.96 219 50.33C220.255 60.2427 214.36 28.4 210.68 20.67C204.337 7.34653 208.32 46.96 209 52.33C210.504 64.2034 204.36 23.08 199.35 11.37C198.344 9.01833 197.68 7.03999 197.01 7.33999C184.481 12.9501 196.32 41.62 198.32 44.66C203.555 52.6168 197.68 22.38 195.35 17.03C194.126 14.22 193 29.6 193 36.96C193 41.48 192.34 25.02 190.68 23.01C188.75 20.6732 187 34.26 187 43.61C187 51.5475 182.36 25.04 177.7 20.03C176.15 18.363 174.36 20.96 173.68 23.63C170.716 35.2685 177.64 44.96 182.32 50.99C185.98 55.7062 178.36 37.04 173.35 31.67C170.437 28.5477 171 46.92 168.69 51.66C166.968 55.1932 161.76 33.96 159.05 28.46C156.34 22.96 155.68 26.92 155.34 30.94C154.045 46.2487 157 54.98 157.33 56.33C160.169 67.9432 151.04 26.42 144.38 15.73C136.838 3.62373 139.66 42.98 140.66 43.34C147.16 45.68 140.34 27.7 138.68 21.71C137.287 16.6849 133.02 13.02 129.69 11.34C116.752 4.81245 129.64 48.28 132.99 54.66C137.81 63.8397 126.4 20.48 120.68 10.33C117.563 4.79879 117 29.58 117 38.62C117 46.08 116.34 21.02 114.35 17.03C113.274 14.8732 111.04 13.04 109.69 13.01C103.144 12.8645 108.32 28.28 110.66 34.99C112.629 40.6351 108.34 23.02 107.01 21.01C102.131 13.6365 106.32 49.56 110.98 67.94C112.67 74.6045 116.32 78.98 117.99 78.68C146.189 73.6142 101.04 18.4 97.01 11.34C89.5566 -1.71743 96.32 47.64 98.32 49.66C106.271 57.69 94.36 29.04 89.37 23.37C87.45 21.1883 85.0401 22.32 84.0201 25.63C83.0001 28.94 83 34.88 83.66 35.96C85.4825 38.9422 87 24.38 86.67 19.03C86.5005 16.2811 85 32.26 85 39.3C85 39.52 85 31.16 84.67 28.07C84.34 24.98 83.68 26.96 83.01 29.63C79.2518 44.607 81.66 58.98 83.32 60.33C93.5113 68.6181 84.36 21.16 79.35 9.99999C71.0132 -8.57064 79.64 60.92 81.33 68.99C82.9951 76.941 81.68 45.08 77.0201 33.37C75.1411 28.6483 71.02 26.34 67.03 25.34C65.0527 24.8444 63.04 25 61.36 27.31C56.9185 33.4171 57 40.98 57.33 44.97C57.4979 47 58.32 48.96 59.65 50.64C60.98 52.32 62.96 53.64 64.31 53C67.7861 51.3521 67 40.4 66.01 32.05C65.6156 28.7232 61 47.56 61 55.64C61 58.12 61 37.32 60.01 29.16C59.02 21 57.04 21 55.36 22.32C51.4536 25.3894 51 36.92 51.33 46.28C51.4698 50.2431 53 27.76 52.01 13.1C51.6388 7.60284 49.04 6.35999 47.36 7.32999C42.8407 9.93935 43 24.24 43.99 38.57C44.3474 43.743 46.96 44.32 48.31 43.01C51.9193 39.5077 51 27.08 50.01 15.41C49.6822 11.5454 47.04 12.32 45.69 14.31C42.5131 18.9931 43 33.56 43.33 46.92C43.6102 58.2601 43.68 24.38 40.69 18.37C39.7222 16.4247 37.04 18.96 35.69 21.96C32.7172 28.5663 33 41.58 33.66 52.6C33.8093 55.0917 37 41.06 36.34 33.38C36.1538 31.213 33 42.94 33.33 50.29C33.4257 52.4214 35 33.12 35 20.07C35 -4.149 39.64 62.26 44.63 73.26C46.4548 77.2825 48.96 77 49.98 73.04C55.9671 49.796 46.36 36.38 41.37 29.71C39.5019 27.213 37.04 28.32 35.36 30.31C31.437 34.9569 31 42.3 31 43.34C31 53.52 30.34 23.02 28.68 21.67C18.9793 13.7808 26.32 53.56 33.3 70.28C34.8774 74.0585 38.28 76.28 40.63 78.3C42.98 80.32 44.96 81.64 46.64 79.02C58.6067 60.3577 44.36 37.74 39.37 26.08C37.4075 21.4941 35.04 20.36 33.03 23.97C26.7905 35.1764 27 51.6 27.33 59.95C27.4027 61.7877 29 51.04 28.01 45.37C27.4682 42.2668 21.68 48.3 19.68 48.35C16.3607 48.433 19 35.2 18.01 29.44C17.02 23.68 15.04 22.36 13.36 24.32C0.91454 38.8397 11.64 64.24 17.31 78.29C18.495 81.2261 20.96 82.96 22.64 82.33C40.4823 75.6392 26.34 38.36 24.35 33.7C23.4002 31.4758 21.04 30.36 19.03 29.68C17.02 29 15.04 29 13.69 31.64C5.75046 47.1663 16.96 62.28 21.65 69.65C29.4436 81.897 33 29.7 33.33 26.35C33.6631 22.9689 38.3 41.58 43.96 52.6C45.5109 55.6196 47.64 51.08 48.32 47.06C49 43.04 49 39.08 49 39.02C49 26.4027 51 68.92 55.31 78.31C56.2059 80.2616 58.96 80.32 60.64 79.01C71.3579 70.6526 67 49.08 68.66 39.03C70.583 27.3878 87 19.02 86.34 18.66C80.0381 15.2226 83.66 35.62 85.65 44.27C89.0686 59.1293 98.98 64.32 102.97 66.32C104.867 67.2708 106.96 67 108.31 66.01C115.535 60.7115 113 45.72 113 42.67C113 40.44 113 54.8 113.66 58.91C114.32 63.02 115.64 61.04 116.65 58.7C118.732 53.8775 119.66 48.36 121.65 45.02C122.419 43.7288 124.96 45.64 126.64 45.33C130.352 44.6451 131.66 39.02 132.99 37.34C134.993 34.81 135 48.28 135.99 54.96C136.462 58.1437 141 46.38 141 42.68C141 41.76 141 50.2 141 48.98C141 24.3711 137.68 9.71999 132.69 2.01999C131.626 0.377813 129.04 0.99999 128.02 4.29999C121.723 24.6721 131.64 42.92 140.29 55.29C146.107 63.6079 156.3 65 162.29 64.34C165.043 64.0366 166.96 62.36 168.31 60.36C169.66 58.36 170.32 55.72 169.67 52.71C168.227 46.0279 162.36 41.02 158.03 39.01C156.497 38.2983 155.68 40.96 156.99 42.64C158.3 44.32 161.6 45.64 164.29 46.32C166.98 47 168.96 47 170.31 45.68C173.485 42.5753 173 33.06 172.01 25.05C171.729 22.7728 169.04 24.96 167.69 27.63C164.848 33.2516 165 44.92 165.66 55.93C165.849 59.084 167.64 57.04 168.32 52.39C169 47.74 169 40.48 168.01 36.41C166.69 30.9831 157.72 31 150.38 30.01C147.347 29.6009 152.32 22.36 153.99 17.37C154.744 15.1169 153.68 13.04 152.35 12.35C151.02 11.66 149.04 12.32 148.02 17.94C147 23.56 147 34.12 147.99 39.23C148.98 44.34 150.96 43.68 152.31 42.35C155.069 39.6322 155 33.7 154.01 28.37C153.598 26.1494 151.04 25.68 150.02 29.63C149 33.58 149 42.16 149.66 45.59C150.124 47.9999 155.64 39.72 160.3 34.69C165.08 29.5303 165 49.64 165.99 53.97C166.427 55.8793 168.96 56.32 170.64 52.7C175.659 41.8844 175 26.4 174.34 17.39C174.157 14.8979 172.36 16.96 171.68 20.95C170.008 30.7618 172.98 39.64 177.3 43.97C179.339 46.0134 182.28 46.32 183.97 45.34C187.704 43.175 187 35.7 187 33.67C187 32.4 187 40.88 187.99 44.27C188.98 47.66 190.96 48.32 192.97 46.02C194.98 43.72 196.96 38.44 197.65 37.04C198.198 35.9274 197 42.98 197.99 44.99C201.628 52.3761 205 33.02 205 31.67C205 22.3366 207 47.64 207.99 52.63C208.486 55.1313 210.96 56.96 212.97 56.33C224.427 52.739 221 37.7 221 36.66C221 34.4 221 46.84 221.99 50.92C222.98 55 224.96 55 226.64 53.02C228.32 51.04 229.64 47.08 230.65 46.03C231.975 44.6524 234.32 50.98 237.31 53.32C238.655 54.3729 240.96 52.36 242.31 50.69C244.93 47.4495 245 43.02 245.33 41.67C246.292 37.7331 248.32 52.96 250.98 57.64C252.601 60.492 255 44.42 255 34.39C255 20.4643 259.64 60.28 263.32 66.33C265.692 70.229 267 51.08 267.99 41.72C269.349 28.8743 277.66 58.98 278.99 60.33C281.902 63.2856 281 45.08 281.33 34.4C281.562 26.8965 292.96 54.28 298.65 62.65C299.954 64.5684 301 47.78 301.66 33.09C301.763 30.8026 307.64 44.94 311.97 51.63C318.658 61.9632 314.34 31.02 313.34 29.01C309.502 21.296 317.64 56.24 324.31 70.62C325.702 73.6209 326.32 76.28 327.32 75.66C331.684 72.9546 331 60.4 331.66 51.72C332.202 44.5959 338.32 64.98 340.65 66C356.179 72.7979 338.34 31.02 337.34 29.67C334.992 26.5002 338.98 48.22 341.32 61.26C344.26 77.6413 334.34 39.02 333.01 38.33C319.902 31.5294 332.32 67.6 332.67 73.67C333.732 92.0802 316.4 27.8 306.07 11.1C296.83 -3.83813 308.96 53.56 313.32 70.28C314.205 73.6722 315.64 76.28 316.32 75.33C324.638 63.71 313.02 49.04 309.69 44.03C308.464 42.1855 307 52.94 307 60.95C307 61.04 303.04 45.14 297.04 30.08C287.078 5.07595 297 67.64 296.67 69.33C293.996 83.0254 289.68 43.72 287.01 37.67C285.335 33.8742 285 50.28 284.67 55.64C283.714 71.1608 277.02 25.72 274.02 21.35C262.92 5.18025 275 54.28 276.99 60.33C278.286 64.2712 277.68 49.04 275.02 42.05C273.842 38.9535 272.36 37.04 271.68 39.65C271 42.26 271 49.52 271 51.28C271 61.6047 265.02 29.04 261.69 24.03C255.614 14.8891 264.32 53.64 265.99 56.32C267.375 58.5423 262.36 47.04 258.03 43.02C254.693 39.922 256.32 55.62 257.66 59.98C259.332 65.4194 249.06 38.44 239.73 23.76C236.868 19.2571 235.68 22.28 235.67 25.62C235.621 41.8379 244.96 58.92 248.33 66C254.015 77.9441 240.36 40.38 236.03 34.37C234.751 32.5946 233.68 34.96 233.34 37.3C233 39.64 233 42.28 233 42.32C233 49.6498 230.34 29.02 229.34 27.67C222.986 19.092 234.32 51.6 237.66 57.01C251.008 78.6311 214.36 9.69999 210.03 6.01999C203.312 0.310131 208.98 24.96 210.99 29.31C215.503 39.0762 197.7 9.05999 192.37 2.03999C190.98 0.208631 189.68 4.91999 190 8.93999C191.216 24.2133 197.66 30.98 197.01 31.34C189.751 35.3605 187.02 17.02 183.69 15.01C181.292 13.5628 181 24.28 180.34 30.96C179.598 38.4732 170.36 18.36 166.03 15.35C164.61 14.3625 163.68 16.96 164.66 20.62C165.64 24.28 168.28 29.56 169.64 31.29C171 33.02 171 31.04 170.01 28.37C167.692 22.118 163.02 16.36 160.35 14.34C151.721 7.81135 166.32 30.98 167.99 32.99C172.82 38.8038 157.68 19.02 154.69 15.69C153.255 14.0922 151.04 13.68 150.68 15.32C146.673 33.5723 166.32 50.98 165.35 51.01C153.954 51.3624 149.02 35.68 145.69 35C144.34 35.64 143.68 38.28 138.06 38.65C132.44 39.02 121.88 37.04 111 35" stroke="black" stroke-width="2" stroke-linecap="round"/>
</svg>
