<svg width="96" height="74" viewBox="0 0 96 74" fill="none" xmlns="http://www.w3.org/2000/svg">
<path d="M3.57025 1.10292C3.57025 1.84049 3.57025 2.57805 3.57025 13.6527C3.57025 24.7274 3.57025 46.1168 1.33521 72.6245" stroke="black" stroke-width="2" stroke-linecap="round"/>
<path d="M28.1558 14.5132V63.6843" stroke="black" stroke-width="2" stroke-linecap="round"/>
<path d="M48.2712 16.7483C47.5337 21.196 46.0362 30.1139 44.1811 39.0652C42.2019 48.6155 43.0412 60.6446 46.3938 68.1432C47.7761 71.2351 52.719 60.734 56.4403 54.42C60.1981 48.0443 59.4465 38.4059 58.3401 29.4769C57.2338 25.7108 55.0211 23.4981 52.7749 21.2519C50.5286 19.0057 48.3159 16.793 43.8011 14.5132" stroke="black" stroke-width="2" stroke-linecap="round"/>
<path d="M79.5619 23.4534C79.5619 40.4398 81.7746 71.127 85.8647 71.1382C95.176 71.1636 94.4473 54.7888 94.1009 32.8518C94.0215 27.8233 90.7818 25.7332 88.5356 24.2245C86.2894 22.7158 84.0767 21.9783 81.8305 21.9671C79.5842 21.9559 77.3715 22.6935 75.0918 23.4534" stroke="black" stroke-width="2" stroke-linecap="round"/>
</svg>
