<svg width="19" height="48" viewBox="0 0 19 48" fill="none" xmlns="http://www.w3.org/2000/svg">
<path d="M5.99994 1C5.33994 1 4.33994 1.99 3.17494 4.15C-0.884335 11.6762 2.65994 22.99 4.15494 24.655C5.54687 26.2052 8.31994 26 10.8149 25.67C13.175 25.3578 14.6599 22.68 15.8249 20.02C16.9434 17.4662 16.9999 14.02 16.1749 10.195C15.3499 8.35 13.6999 6.7 11.3649 5.85C9.02994 5 6.05994 5 2.99994 5" stroke="black" stroke-width="2" stroke-linecap="round"/>
<path d="M5.17008 37.14C6.34008 31.98 7.67008 27.99 8.00008 28C10.0201 28.34 11.0101 28.67 12.0151 29.175C13.0201 29.68 14.0101 30.34 15.0151 31.69C17.0101 35.02 18.3929 38.4185 17.8301 40.85C17.3301 43.01 17.0847 45.7343 14.9751 46.505C13.6201 47 11.3101 47 9.47508 46.83C7.64008 46.66 6.32008 46.33 5.66008 44.465C5.00008 42.6 4.69096 39.253 5.17008 37.14Z" stroke="black" stroke-width="2" stroke-linecap="round"/>
</svg>
