<svg width="239" height="92" viewBox="0 0 239 92" fill="none" xmlns="http://www.w3.org/2000/svg">
<path d="M165.765 16.6453C165.028 16.6453 164.29 16.6453 137.726 16.6453C111.163 16.6453 58.7957 16.6453 31.4499 17.7517C4.10411 18.858 3.36654 21.0707 2.98658 24.7921C1.31524 41.1614 0.371574 55.2893 1.47792 70.5547C1.89601 76.3234 4.79697 77.7069 10.3622 78.4668C39.5272 82.4492 62.1036 76.9917 82.9902 75.1366C109.003 72.8261 138.855 70.2865 171.934 66.5763C184.173 65.2035 200.453 65.8164 208.812 63.6037C217.171 61.391 217.171 56.9656 216.803 53.2107C214.936 40.5157 211.986 28.6252 206.387 11.4936C205.258 7.7275 204.521 5.5148 203.761 1" stroke="black" stroke-width="2" stroke-linecap="round"/>
<path d="M159.06 21.1154C173.834 21.1154 203.716 22.5905 212.668 23.7192C214.914 24.088 217.127 24.8256 221.217 25.2056C225.307 25.5855 231.207 25.5855 237.287 25.5855" stroke="black" stroke-width="2" stroke-linecap="round"/>
<path d="M27.1922 30.0557C27.1922 43.3542 30.1425 74.6672 36.4788 85.5296C37.8127 87.8162 40.5578 88.8821 42.804 89.6421C45.0502 90.402 47.2629 90.402 48.7716 88.9268C58.3524 79.559 56.2478 60.6535 55.1415 52.462C54.7099 49.2668 51.8224 48.696 48.1011 48.316C44.3797 47.9361 39.2168 47.9361 35.0819 48.6736C30.9471 49.4112 27.9968 50.8863 22.7221 56.8762" stroke="black" stroke-width="2" stroke-linecap="round"/>
<path d="M69.6581 34.5258C69.6581 36.0009 69.6581 39.7111 70.7644 44.9187C72.9068 55.0028 87.4938 57.5915 96.0764 59.86C99.4289 56.9209 101.686 52.4285 102.804 46.8632C103.184 43.5107 103.184 39.0853 105.419 34.5258" stroke="black" stroke-width="2" stroke-linecap="round"/>
<path d="M154.59 32.2907C150.142 34.5034 142.7 43.4213 134.508 54.5965C126.294 65.7941 120.349 74.7119 116.237 83.6633C115.119 85.9095 113.644 88.1222 114.359 88.1669" stroke="black" stroke-width="2" stroke-linecap="round"/>
<path d="M114.359 32.2907C115.834 33.7658 118.807 36.0009 123.266 39.3423C127.725 43.4213 131.48 47.9137 134.452 52.3726C135.95 54.6188 137.425 56.8315 141.18 59.1113" stroke="black" stroke-width="2" stroke-linecap="round"/>
</svg>
