<svg width="343" height="484" viewBox="0 0 343 484" fill="none" xmlns="http://www.w3.org/2000/svg">
<path d="M11.192 22.9377C12.4524 22.9377 27.5955 22.9377 48.9258 23.8829C55.8204 24.1885 54.5018 26.7187 50.0715 31.4736C28.1084 55.0461 13.178 66.7821 2.98074 78.5548C-0.271467 82.3095 2.86617 83.3957 5.74012 83.7203C22.5733 82.7846 44.2281 78.3352 54.7214 75.1557C58.913 73.8667 60.8035 73.2366 62.7513 72.5873" stroke="black" stroke-width="2" stroke-linecap="round"/>
<path d="M93.3049 22.9377C93.3049 43.1413 93.9351 78.9272 95.2049 83.6916C95.8058 85.9461 96.4748 87.8259 100.58 88.7998C122.56 89.1436 129.568 87.8641 133.378 87.234C135.297 86.6038 137.188 85.3434 141.045 84.0449" stroke="black" stroke-width="2" stroke-linecap="round"/>
<path d="M135.316 32.4857C134.056 32.4857 129.626 32.4857 122.951 32.8008C118.168 33.746 111.179 36.916 102.595 41.0502C99.0528 42.6639 97.1623 43.294 91.3953 45.8529" stroke="black" stroke-width="2" stroke-linecap="round"/>
<path d="M114.311 17.2089C113.05 17.2089 106.729 17.2089 96.8759 17.839C92.6938 18.4692 90.1732 19.7295 87.9294 21.009C85.6856 22.2884 83.7951 23.5487 81.8473 24.8473" stroke="black" stroke-width="2" stroke-linecap="round"/>
<path d="M175.418 21.0281C171.618 21.0281 163.998 22.9186 157.954 26.7282C153.908 29.2791 154.412 38.1572 155.042 47.6957C155.301 51.6051 156.933 53.4531 158.527 54.427C160.122 55.4009 162.012 55.4009 163.616 54.4557C171.025 50.0896 174.119 40.1623 177.003 30.3087C178.165 26.3378 177.327 19.8823 177.327 20.7321C177.327 42.6619 181.147 55.3627 184.632 67.7656C185.996 72.6199 188.136 76.3874 190.991 79.5669C192.585 80.8559 194.476 81.4861 196.395 81.8107C198.314 82.1353 200.204 82.1353 202.152 82.1353" stroke="black" stroke-width="2" stroke-linecap="round"/>
<path d="M202.152 1.93206C202.152 4.45273 202.152 6.97341 202.152 28.4373C202.152 49.9012 202.152 90.232 204.062 129.875" stroke="black" stroke-width="2" stroke-linecap="round"/>
<path d="M228.887 66.8585C227.626 66.8585 225.717 68.749 223.492 72.8737C215.444 87.7954 222.509 112.651 225.688 119.353C226.374 120.799 228.848 120.327 231.083 119.697C236.007 118.308 240.325 113.357 243.82 106.693C247.459 99.7522 247.983 92.9819 246.722 87.9023C245.462 85.3434 242.941 82.8228 240.697 81.2092C238.454 79.5955 236.563 78.9654 230.796 74.4969" stroke="black" stroke-width="2" stroke-linecap="round"/>
<path d="M270.898 22.9377C270.898 23.5678 270.898 24.198 270.898 40.2769C270.898 56.3557 270.898 87.8641 272.807 118.418" stroke="black" stroke-width="2" stroke-linecap="round"/>
<path d="M261.35 55.4009H288.084" stroke="black" stroke-width="2" stroke-linecap="round"/>
<path d="M64.6609 160.429C63.4005 160.429 60.8608 160.429 57.3662 161.374C53.4753 162.427 53.2033 173.09 54.1485 187.058C55.1108 201.28 60.8226 210.06 66.2076 212.924C69.4105 214.628 74.7436 213.898 78.916 212.322C83.0885 210.747 86.2394 207.596 88.1776 204.398C91.7272 198.54 91.3953 192.281 91.0802 187.517C87.5952 178.914 81.8664 172.536 78.0567 169.681C76.1376 168.086 74.2471 166.196 70.3897 162.339" stroke="black" stroke-width="2" stroke-linecap="round"/>
<path d="M116.22 200.531C116.22 188.538 121.261 156.724 134.629 136.301C137.837 133.064 140.357 132.434 146.067 132.11C151.777 131.785 160.599 131.785 169.689 133.695" stroke="black" stroke-width="2" stroke-linecap="round"/>
<path d="M104.762 171.887H139.135" stroke="black" stroke-width="2" stroke-linecap="round"/>
<path d="M43.6553 339.932C43.6553 335.501 44.9156 325.342 48.4102 311.039C54.2494 287.14 60.1924 278.862 64.6418 271.214C65.8016 269.221 67.1815 267.405 68.461 267.691C77.8795 269.8 74.2089 288.945 79.5939 314.056C84.387 326.545 87.557 335.425 91.3666 345.269C93.2858 350.071 95.1763 354.483 99.0337 362.847" stroke="black" stroke-width="2" stroke-linecap="round"/>
<path d="M36.0168 313.197H87.5761" stroke="black" stroke-width="2" stroke-linecap="round"/>
<path d="M104.763 330.384C112.974 330.384 127.659 329.123 131.153 326.268C132.905 324.837 134.018 322.783 134.667 320.864C138.335 310.022 130.237 295.4 127.382 291.58C126.151 289.933 123.897 290.282 122.293 291.227C113.763 296.254 106.71 309.951 101.593 324.912C98.8127 333.039 102.204 339.912 105.058 343.722C113.012 350.74 120.02 354.559 123.83 356.154C125.749 356.488 127.64 355.858 133.407 351.389" stroke="black" stroke-width="2" stroke-linecap="round"/>
<path d="M156.322 322.745C156.322 322.115 156.322 321.485 155.692 322.105C155.061 322.726 153.801 324.616 153.467 326.536C151.053 340.396 176.029 355.17 181.127 362.818C183.667 366.628 184.966 371.096 184.021 375.861C175.456 383.203 163.998 385.762 154.135 387.347C151.261 387.672 148.11 387.672 142.955 383.852" stroke="black" stroke-width="2" stroke-linecap="round"/>
<path d="M181.147 309.378C181.147 310.008 181.147 310.638 181.147 319.155C181.147 327.672 181.147 344.056 184.966 362.847" stroke="black" stroke-width="2" stroke-linecap="round"/>
<path d="M198.333 322.745C198.333 323.375 198.333 324.005 193.607 324.33C188.88 324.655 179.428 324.655 169.689 324.655" stroke="black" stroke-width="2" stroke-linecap="round"/>
<path d="M192.604 297.92C192.604 313.694 193.864 348.143 194.829 383.728C194.988 389.607 195.774 387.71 196.414 385.16C199.123 374.362 200.243 366.704 204.358 353.986C206.422 347.606 211.681 344.4 215.176 343.436C220.599 350.091 224.418 358.989 226.967 369.807C227.607 372.376 228.237 374.266 228.887 378.124" stroke="black" stroke-width="2" stroke-linecap="round"/>
<path d="M228.887 378.124C229.517 374.323 234.577 366.704 238.11 358.741C239.026 356.677 238.435 353.986 237.174 352.688C235.914 351.389 233.393 351.389 231.465 352.334C223.912 356.036 225.067 367.888 226.013 375.842C233.317 380.663 249.778 381.943 261.006 379.413C262.61 378.143 263.87 376.252 265.169 374.304" stroke="black" stroke-width="2" stroke-linecap="round"/>
<path d="M265.169 294.101C265.169 294.731 265.169 295.361 265.169 307.344C265.169 319.327 265.169 342.643 267.079 366.666" stroke="black" stroke-width="2" stroke-linecap="round"/>
<path d="M247.983 330.384H276.627" stroke="black" stroke-width="2" stroke-linecap="round"/>
<path d="M286.175 338.022C286.175 339.282 286.175 349.384 286.175 362.761C286.175 366.685 286.175 364.795 286.49 362.875C286.805 360.956 287.435 359.066 288.084 357.118" stroke="black" stroke-width="2" stroke-linecap="round"/>
<path d="M316.728 334.203C314.188 336.723 311.649 345.622 312.575 374.514C312.759 380.251 317.301 380.033 320.5 379.403C326.849 377.512 331.986 374.954 335.796 372.414C337.715 371.134 339.605 369.874 341.553 366.666" stroke="black" stroke-width="2" stroke-linecap="round"/>
<path d="M146.774 416.316C127.83 416.316 94.6034 417.576 90.154 420.746C85.7083 423.913 85.6665 430.924 86.6117 436.958C88.5147 449.106 102.815 455.73 113.957 468.782C116.114 471.308 114.96 473.565 113.69 474.854C108.458 480.165 97.8116 479.943 87.6143 481.557C82.5347 482.502 76.1567 483.152 70.4279 482.206C68.4801 481.261 68.4801 479.371 68.4801 477.423" stroke="black" stroke-width="2" stroke-linecap="round"/>
<path d="M293.813 315.107C293.813 316.367 293.813 318.907 294.758 322.716C295.273 324.793 297.594 326.526 298.883 326.555C300.172 326.583 300.802 324.693 301.127 322.459C301.451 320.224 301.451 317.704 299.876 316.405C298.301 315.107 295.15 315.107 293.212 316.052C291.273 316.997 290.643 318.888 289.994 320.835" stroke="black" stroke-width="2" stroke-linecap="round"/>
</svg>
