<svg width="302" height="106" viewBox="0 0 302 106" fill="none" xmlns="http://www.w3.org/2000/svg">
<path d="M10.5817 13.7798C10.5817 31.744 12.2901 66.3784 18.3214 75.4382C23.7528 83.5969 35.975 84.951 69.1663 89.6685C96.3212 93.5281 144.641 98.6571 180.608 101.517C216.576 104.378 238.785 104.378 252.575 103.951C278.97 103.133 288.381 100.935 296.8 99.4272C300.497 98.7651 299.201 90.1798 299.415 83.0743C299.591 77.2176 300.495 54.1088 299.855 23.4737C299.642 13.3217 297.933 14.1939 294.924 14.634C291.914 15.074 287.216 15.074 267.925 13.152C248.634 11.2301 214.893 7.38612 192.813 5.40591C161.401 2.58873 148.239 3.8528 135.801 4.49993C112.289 5.72322 95.1614 4.29285 83.1701 3.64572C36.5432 1.12942 28.7531 2.13144 20.3275 1.0572C11.9795 0.837178 5.41763 1.26428 2.83558 2.12496C1.53485 2.55854 0.253539 2.98565 1.52191 2.13144" stroke="black" stroke-width="2" stroke-linecap="round"/>
<path d="M28.7012 34.4879C28.7012 34.915 28.7012 35.3421 28.7012 38.9789C28.7012 42.6158 28.7012 49.4495 28.9147 51.9021C29.1283 54.3547 29.5554 52.2192 29.9954 50.0189" stroke="black" stroke-width="2" stroke-linecap="round"/>
<path d="M48.1152 38.3706C48.1152 40.079 48.1152 46.9386 48.1152 55.3578C48.1152 57.7974 48.1152 56.5161 48.3288 55.2154C49.1866 49.9904 51.1179 43.1594 55.0007 37.3093C55.9354 35.901 58.0034 35.368 59.5241 35.1415C61.0449 34.915 62.3262 35.3421 63.6269 37.6976C70.0055 49.2489 70.9718 55.1701 72.4861 61.6414C72.7061 63.3757 72.7061 65.0841 72.7061 65.3235C72.7061 65.563 72.7061 64.2817 72.7061 62.9615" stroke="black" stroke-width="2" stroke-linecap="round"/>
<path d="M99.8855 24.1338V74.6098" stroke="black" stroke-width="2" stroke-linecap="round"/>
<path d="M90.8257 51.3132H114.122" stroke="black" stroke-width="2" stroke-linecap="round"/>
<path d="M121.888 55.196C121.888 56.0502 121.888 60.3342 121.888 63.3822C121.888 77.1662 123.182 43.5736 125.758 34.0931C126.771 30.3619 130.067 28.4566 133.724 27.1624C141.289 27.1494 150.724 32.2876 158.321 35.9892C159.835 36.6363 161.544 37.4906 163.304 38.3706" stroke="black" stroke-width="2" stroke-linecap="round"/>
<path d="M149.067 53.9017C149.921 53.9017 156.341 53.9017 165.614 53.2611C168.962 53.0298 169.335 51.3391 169.128 50.0384C168.921 48.7377 168.067 47.4563 166.986 46.5827C164.889 44.8875 158.606 44.8419 151.06 45.4826C148.152 45.7295 147.359 47.4046 146.919 51.9086C145.732 64.0506 147.333 73.3027 149.268 75.4576C151.63 76.7583 158.075 77.1984 166.481 76.3442C169.762 75.49 171.044 73.7815 172.364 72.0213" stroke="black" stroke-width="2" stroke-linecap="round"/>
<path d="M202.132 48.7247C201.278 48.7247 198.275 48.7247 193.965 49.5789C190.383 50.2888 190.056 55.183 189.409 58.6193C189.008 60.748 189.189 63.7639 190.684 66.3719C197.852 78.8765 212.046 78.4796 212.486 80.8481C207.322 84.5238 201.303 87.9666 195.68 90.348C194.379 90.9951 193.098 91.8493 190.483 92.7294" stroke="black" stroke-width="2" stroke-linecap="round"/>
<path d="M221.546 44.8419C221.546 45.6961 221.546 46.5503 221.546 55.3189C221.546 64.0875 221.546 80.7446 222.84 95.318" stroke="black" stroke-width="2" stroke-linecap="round"/>
<path d="M233.194 62.9615C232.767 62.9615 232.34 62.9615 227.849 62.9615C223.357 62.9615 214.815 62.9615 206.014 64.2558" stroke="black" stroke-width="2" stroke-linecap="round"/>
<path d="M240.96 68.1386C242.681 66.8572 243.548 62.1203 242.907 58.4575C242.622 56.8261 240.985 56.0761 239.044 55.636C237.103 55.196 234.54 55.196 233.22 58.1857C229.558 66.479 232.754 75.024 234.262 78.2532C236.925 83.9569 243.522 87.9666 249.78 89.7074C251.301 89.7138 252.582 89.2867 253.456 88.426C254.329 87.5654 254.756 86.2841 255.196 83.6697" stroke="black" stroke-width="2" stroke-linecap="round"/>
<path d="M272.022 42.2534C272.022 58.0822 272.449 83.6826 273.096 80.4599C273.984 76.0388 272.462 72.0343 270.527 69.6658C268.592 67.298 265.563 66.4172 262.981 66.6243C259.506 66.903 259.079 75.4252 259.72 82.7572C259.956 85.4575 261.642 85.8181 262.942 86.2517C265.524 87.1124 268.98 87.5524 272.643 86.9118C274.17 86.2711 275.024 84.9898 275.251 83.6891C275.477 82.3883 275.05 81.107 273.316 77.1984" stroke="black" stroke-width="2" stroke-linecap="round"/>
<path d="M22.23 21.5453C22.6571 21.5453 23.0842 21.5453 24.1584 21.5453C25.2327 21.5453 26.9411 21.5453 26.1128 18.9568" stroke="black" stroke-width="2" stroke-linecap="round"/>
</svg>
