<svg width="163" height="92" viewBox="0 0 163 92" fill="none" xmlns="http://www.w3.org/2000/svg">
<path d="M1 9.94025C2.47513 9.94025 15.7737 9.94025 35.1404 11.4154C42.1058 11.9459 42.706 15.8408 43.4548 18.8357C44.9411 24.781 45.701 31.5085 44.5946 38.5712C42.5268 51.7716 27.8653 54.6189 25.2168 57.9714C35.1068 59.1113 45.6786 58.3737 50.8751 57.2562C53.8589 56.8763 57.5467 56.8763 61.3463 54.6412" stroke="black" stroke-width="2" stroke-linecap="round"/>
<path d="M90.4019 18.8804C90.4019 18.1428 90.4019 17.4053 89.2956 17.0253C88.1892 16.6453 85.9765 16.6453 83.7303 17.7517C71.6742 23.6898 70.2865 47.8243 71.3928 64.9559C71.7903 71.1113 74.7119 71.7616 78.0645 72.1416C85.8022 73.0185 92.6146 71.0464 96.7048 67.3362C100.057 62.1509 101.577 50.2605 100.471 36.1126C99.3645 30.8155 97.1518 29.3404 92.637 25.5855" stroke="black" stroke-width="2" stroke-linecap="round"/>
<path d="M161.924 21.1155C150.1 21.1155 128.42 21.853 124.33 24.0769C122.226 25.2207 120.977 27.7759 120.586 30.3909C118.492 44.3911 139.528 53.8813 147.373 61.3128C149.202 63.0451 148.513 65.7718 146.301 67.6492C132.153 73.9967 121.737 79.942 110.931 83.3169C108.305 83.6968 106.092 83.6968 103.812 83.6968" stroke="black" stroke-width="2" stroke-linecap="round"/>
<path d="M146.278 1C146.278 17.9864 144.803 53.8365 143.674 63.9166C141.07 74.7343 138.835 81.4394 137.349 85.8983C136.6 88.1445 135.863 90.3572 135.103 90.4019" stroke="black" stroke-width="2" stroke-linecap="round"/>
<path d="M135.103 3.23511C135.103 3.97267 135.103 4.71024 135.103 18.3664C135.103 32.0225 135.103 58.5749 132.868 85.9319" stroke="black" stroke-width="2" stroke-linecap="round"/>
</svg>
