<svg width="313" height="375" viewBox="0 0 313 375" fill="none" xmlns="http://www.w3.org/2000/svg">
<path d="M281.139 3.32545C279.664 3.32545 239.813 3.32545 174.684 4.4318C121.448 5.33612 100.994 12.9809 80.0629 15.607C51.4104 19.202 35.3284 22.681 26.0083 23.8097C20.3753 24.4918 14.4531 26.4135 8.87665 27.531C6.27485 28.0524 4.03776 27.911 2.89789 33.4427C-0.459259 49.7348 2.49558 66.5997 3.61311 102.45C4.5693 133.125 3.99306 189.192 4.36185 220.282C4.7833 255.811 6.22811 264.781 6.5969 273.699C6.96819 282.678 8.46316 316.679 11.0446 360.643C11.9057 375.307 18.7891 373.628 25.8742 372.131C56.4778 365.663 92.4116 364.688 127.513 361.324C184.025 355.909 198.353 349.043 221.083 347.154C240.839 345.513 264.689 343.813 299.634 341.946C306.541 341.578 307.2 338.627 307.949 336.381C311.154 326.764 312.43 289.725 310.575 262.647C310.066 255.223 309.457 248.466 308.34 204.167C307.297 162.83 307.96 83.1614 306.853 42.1259C305.747 1.0904 303.534 1.0904 301.288 1.45919C292.337 4.06302 283.419 5.5605 269.282 7.41559C264.801 7.79555 259.638 7.79555 256.554 5.5605" stroke="black" stroke-width="2" stroke-linecap="round"/>
</svg>
