<svg width="63" height="54" viewBox="0 0 63 54" fill="none" xmlns="http://www.w3.org/2000/svg">
<path d="M53.5 1.5C53.005 1.5 52.51 1.5 44.005 1.5C35.5 1.5 19 1.5 10.335 1.83C1.67 2.16 1.34 2.82 1.17 10.255C1 17.69 1 31.88 1.33 39.2725C1.66 46.665 2.32 46.83 3.0725 46.915C4.64231 47.0923 11.44 48.485 23.08 50.9C33.9016 53.1452 41.48 52.335 46.3775 51.755C53.1284 50.9555 57.66 49.67 58.99 48.7575C61.495 46.005 62.5 38.565 61.51 26.0925C60.52 20.055 58.54 14.61 56 8" stroke="black" stroke-width="2" stroke-linecap="round"/>
<path d="M9 42.5C9 42.17 9 36.72 9.165 27.73C9.35473 17.3926 13.16 11.18 14.08 9.0075C14.2989 8.49068 14.66 8.01 15.0775 7.92C15.495 7.83 15.99 8.16 16.245 8.66C16.7846 9.71804 17.82 15.78 20.315 25.1C21.403 29.1643 22.48 31.78 23.2375 32.8925C23.995 34.005 24.49 33.51 24.91 32.595C27.4812 26.9935 30.16 20.85 32.8225 16.8475C33.4196 15.95 33.99 15.51 34.41 15.5025C36.9706 15.4568 36.16 23.14 37.4125 26.9875C38.4839 30.2788 39.33 33.32 39.5825 35.4925C39.665 35.995 39.83 36.49 39.9975 36.9925C40.165 37.495 40.33 37.99 40.5 39" stroke="black" stroke-width="2" stroke-linecap="round"/>
</svg>
