<svg width="74" height="49" viewBox="0 0 74 49" fill="none" xmlns="http://www.w3.org/2000/svg">
<path d="M49 3.5C48.34 3.5 47.68 3.5 41.73 3.5C35.78 3.5 24.56 3.5 18.3675 3.665C11.335 3.85238 9.83997 4.995 8.50997 6.075C5.62226 8.41991 4.00997 12.81 2.25497 24.2875C1.62161 28.4296 2.16497 30.495 2.74497 31.4925C4.61041 34.7007 8.15997 36.99 18.585 41.7275C25.5153 44.8769 39.56 45.13 47.4375 46.065C60.44 47.6083 68.12 47.5 71.91 46.8375C73.0101 46.6452 72.175 42.53 70.8425 37.4525C69.9969 34.2305 67.525 26.07 63.775 15.3225C61.9601 10.121 62 6.03 62.1675 3.09C62.005 2.67 61.51 2.34 58.285 2.17C55.06 2 49.12 2 42.5 1.5" stroke="black" stroke-width="2" stroke-linecap="round"/>
<path d="M45.5 16C45.17 16 40.545 16 33.63 16.33C31.1508 16.4483 30.84 17.32 30.67 18.5675C30.5 19.815 30.5 21.63 30.995 22.895C32.6201 27.048 38.15 26.66 42.5675 27.9125C43.4923 28.1747 43.99 28.33 44.3275 28.6625C46.1666 30.4743 44.835 34.16 44.3375 35.325C43.315 37.7194 40.01 38.33 37.1825 39.33C35.855 39.5 33.71 39.5 32.3575 39.4175C31.005 39.335 30.51 39.17 30.5 39" stroke="black" stroke-width="2" stroke-linecap="round"/>
</svg>
