<svg width="354" height="119" viewBox="0 0 354 119" fill="none" xmlns="http://www.w3.org/2000/svg">
<path d="M3 16C3 30.56 6.96 57.28 9.33 69.29C10.2542 73.9735 11 83.92 11.99 96.58C12.3675 101.408 14.96 102.64 20.27 103.32C46.0892 106.626 60.92 102 86.9 98.02C105.974 95.098 128.2 92 145.61 90.34C160.914 88.8808 171.6 92 225.12 100.3C260.678 105.814 306.2 110 322.6 111.66C328.222 112.229 337.48 112 342.57 111.01C362.753 107.084 347.68 56.72 343.35 46.37C339.924 38.1817 337.68 28.72 335.34 18.04C334.199 12.8327 334.34 8.02 332.35 4.69C326.885 -4.45513 297.14 11.3 262.28 16.3C214.024 23.2214 181.7 17.34 175.38 16.34C164.36 15.34 140.52 14 103.9 12.34C82.08 12 41.16 12 1 12" stroke="black" stroke-width="2" stroke-linecap="round"/>
<path d="M5 16.5597C5 35.0597 5.66 70.5397 6.66 64.6297C7.97754 56.843 7 38.9197 7.99 32.3797C8.98 25.8397 10.96 31.1197 12.31 37.1397C20.7061 74.5802 25.66 114.54 26.99 116.55C30.4661 121.803 30.32 101.28 31.33 87.9497C31.9863 79.2879 33 58.7197 32.34 36.0397C32.1401 29.1708 30.36 31.8397 29.68 34.5197C26.8717 45.5878 27 58.4997 27 60.8997C27 95.206 25 15.2597 24.67 12.2397C23.2527 -0.730457 21.68 45.1197 21 72.1497C20.8424 78.4125 23 57.9197 23.33 52.9297C23.4866 50.5618 24.32 48.5997 24.66 54.5097C25 60.4197 25 74.2797 25.99 76.4697C34.9673 96.3285 31.66 45.9197 32.66 46.2097C43.7194 49.4169 33.66 68.5397 34.66 70.2197C40.279 79.6595 37 39.3197 38.66 24.6097C39.4067 17.993 39 33.6997 39.99 61.3797C40.2973 69.9714 42.96 67.2797 44.31 64.9297C46.6879 60.7903 47 50.6397 46.67 40.2897C46.1735 24.7178 45.66 80.5397 47.32 80.5697C55.5427 80.7183 51 57.3197 51 44.3097C51 41.3453 49 60.4797 47.34 75.4997C46.8618 79.8266 47 85.1197 47 79.2597C47 35.2547 43.68 24.5997 42.34 18.8997C39.8664 8.37753 37.68 49.1197 37.66 103.04C37.6567 111.944 39.64 109.28 40.32 106.6C42.9672 96.1665 43 61.5197 41.34 40.5897C40.3553 28.1745 44.32 99.7997 45.66 111.21C48.6169 136.388 46.36 40.6397 43.01 33.5597C40.8302 28.9527 41 55.7597 41.66 72.1297C41.8431 76.67 45 47.3597 45 44.1897C45 34.1597 45 87.8797 45.99 102.58C46.98 117.28 48.96 112 49.98 97.7297C52.6454 60.4409 50.34 33.9197 49.34 38.8297C47.8317 46.2353 49 64.1997 49.99 66.7797C53.9406 77.0752 55 28.0397 55 19.8997C55 -14.2003 55.66 84.5397 57.65 86.8797C68.3843 99.5019 69 37.9797 68.34 23.6597C68.074 17.888 66.36 15.2797 65.02 19.5297C60.2999 34.5002 61 63.0597 61.66 86.7397C61.8609 93.9471 63.64 91.2797 64.65 87.9397C68.9532 73.7092 68.32 59.9597 69 48.8797C69.2573 44.6875 69 67.5997 69.33 76.0697C69.66 84.5397 70.32 86.5197 71.32 76.3197C74.5128 43.7534 75.66 17.2597 76.66 11.2697C78.7076 -0.995253 78.32 67.8397 79.66 76.5297C79.9824 78.6205 81.64 80.5197 83.31 80.5497C84.98 80.5797 86.96 78.5997 87.98 74.9397C93.4537 55.2988 91 30.6797 89.01 11.6197C88.6195 7.87981 87.68 5.27966 86.02 3.58966C84.36 1.89966 81.72 1.23966 80.03 3.20966C75.4745 8.51987 77 39.6397 77.66 74.6697C77.8479 84.6398 79.64 78.6797 80.65 74.6297C81.66 70.5797 82.32 68.5997 83.32 68.8997C86.9072 69.9758 87 77.1997 87.33 80.2097C87.536 82.0884 89 60.0597 88.34 37.6997C86.36 37.1197 85 55.7597 85.33 74.7697C85.66 80.5797 86.32 78.5997 87 74.5597" stroke="black" stroke-width="2" stroke-linecap="round"/>
</svg>
