<svg width="377" height="103" viewBox="0 0 377 103" fill="none" xmlns="http://www.w3.org/2000/svg">
<path d="M20.8178 23.701C20.8178 25.1761 20.8178 49.5381 22.2929 84.9301C22.7877 96.8016 26.7183 95.9824 29.3445 95.6025C43.8064 93.5101 66.1893 90.7524 81.1082 88.8973C88.4926 87.9791 95.2896 87.7798 130.737 86.6623C163.221 85.6382 225.191 86.2823 258.213 86.6511C297.983 87.0952 306.859 89.9925 321.376 91.1212C331.766 91.9291 344.81 95.2225 356.042 93.3674C364.942 91.8973 371.698 90.0149 374.682 87.791C377.648 85.5804 373.955 61.1604 371.743 29.8697C370.976 19.0303 365.105 19.2309 361.719 19.5997C356.045 20.2176 347.202 21.4659 335.669 21.8347C327.75 22.0879 294.544 23.701 246.882 23.3322C217.488 23.1048 187.91 17.0405 157.245 14.392C126.126 11.7042 81.2088 11.0506 64.8371 9.9219C41.0729 8.28355 7.42983 8.7932 3.70848 11.0171C1.89054 12.1035 1.46225 14.7161 2.18864 16.5935C8.88262 25.1538 12.6151 36.329 13.7327 43.7605C14.1126 47.5042 14.1126 51.1921 16.3477 57.2267" stroke="black" stroke-width="2" stroke-linecap="round"/>
<path d="M23.0529 16.9958C23.0529 42.833 23.7904 93.7027 25.2767 97.0664C38.2847 126.506 27.523 12.481 27.1542 20.2925C25.2879 37.7594 26.763 63.1272 27.523 78.8843C27.523 67.9996 27.523 34.0716 29.758 1.35049" stroke="black" stroke-width="2" stroke-linecap="round"/>
</svg>
