<svg width="361" height="90" viewBox="0 0 361 90" fill="none" xmlns="http://www.w3.org/2000/svg">
<path d="M27 16C27 18.64 27 33.2 27.99 53.53C28.6015 66.0874 39 69.98 40.32 73.64C42.0055 78.3134 62.84 78 88.82 77.67C102.954 77.4905 119.54 76 142.83 75.34C162.253 74.7896 194.76 72 232.41 71.67C249.628 71.5191 276.76 70 313.75 70.33C333.21 70.5036 340.96 77.32 348.97 75.68C367.141 71.9597 356.32 24.72 356.01 17.02C355.884 13.8823 348.36 15.34 335.12 14.34C306.121 12.1497 283.7 14.66 236.13 15.66C191.868 16.5904 106.72 16 61.87 15.67C17.02 15.34 15.04 14.68 12.04 14.34C9.04 14 5.08 14 1 14" stroke="black" stroke-width="2" stroke-linecap="round"/>
<path d="M35.0001 16C35.0001 33.84 36.3201 72.6 38.9801 83.66C44.826 107.967 56.9601 29.56 60.6601 12.03C61.0811 10.0354 61.0001 8.04 61.6601 12.3C63.9492 27.0754 68.3001 49.88 74.6201 66.23C76.565 71.2617 80.2801 67.4 82.9601 61.41C89.2947 47.2516 91.6601 34.7 92.9901 28.71C93.591 26.0037 94.3201 24.04 95.6501 27.64C100.245 40.0781 101.66 51.98 103.65 53.66C107.033 56.5159 109.66 45.36 111.32 42.68C113.155 39.7176 116.32 52.62 118.98 60.61C120.126 64.051 121.64 65.96 124.96 61.37C128.28 56.78 133.56 45.56 136.61 40.77C139.66 35.98 140.32 37.96 141.32 41.95C143.799 51.8415 146.32 60.64 149.31 63.32C156.515 69.7778 158.32 49.36 161.31 46.68C164.647 43.6889 169.64 53.32 174.96 54C181.159 54.7924 183.66 45.36 185.32 42.35C188.753 36.1252 192.32 53.98 195.64 57.64C197.395 59.5746 200.28 60.64 202.3 59.67C212.775 54.64 209.66 41.36 212.31 40.66C222.023 38.0944 222.32 57.98 225.31 60.98C226.691 62.366 228.96 62 230.31 60.35C233.693 56.2151 233 41.44 233.99 29.4C234.571 22.332 239 45.98 239.99 49.31C240.467 50.9147 242.96 51.32 244.64 49.02C249.448 42.437 249 32.7 249 31.66C249 29.4 249 41.84 249.33 46.91C249.66 51.98 250.32 53.96 251.65 50.36C252.98 46.76 254.96 37.52 257.63 37.71C269.324 38.5422 268.32 59.98 270.32 61C282.453 67.1879 265.04 24.8 259.35 15C256.741 10.5068 257 33.9 257 43.62C257 43.8 257 32.88 257 34.37C257 35.86 257 49.72 257 50.26C257 50.8 257 37.6 257 32.78C257 26.2267 255 52.6 255 59.63C255 74.5746 252.34 36.02 251.01 34.01C249.708 32.0415 249 49.88 249 63.59C249 84.4704 244.36 25.4 242.34 18.34C241.365 14.9322 239 32.58 239 43.93C239 44.46 237.68 35.38 235.68 31.35C226.531 12.9154 239.66 69.98 240.66 70.67C252.705 78.9807 236.36 41.4 234.34 34.67C233.075 30.4552 231 47.28 231 53.96C231 62.6409 223.04 26.76 218.68 17.67C210.629 0.883747 215.66 54.64 216.66 55.01C218.813 55.8065 217 45.48 216.67 43.39C216.426 41.8457 215 52.62 215 58.3C215 69.9351 210.34 30.02 209.01 29.99C190.933 29.5822 208.32 60.62 210.32 65.97C211.251 68.4601 210.34 56.7 208.68 50.71C207.914 47.9444 206.36 46.04 205.02 46.67C200.725 48.6891 201 57.96 200.67 62.31C199.545 77.1358 189.02 28.04 186.02 27.32C158.811 20.7899 189 63.98 189.33 65.33C192.022 76.3409 186.36 40.72 182.68 34.34C180.809 31.0959 179 49.24 179 61.92C179 69.24 171.04 33.44 165.35 20.37C164.329 18.0248 163.68 16.04 163.01 16.34C152.858 20.8856 162.32 45.92 166.32 59.29C167.115 61.9482 167 63.96 167 62.67C167 44.5467 157.68 28.02 155.02 26.01C152.389 24.0216 151 35.28 150.34 39.98C149.304 47.3556 146.34 24.02 145.34 25.31C128.187 47.438 152.32 69.98 153.33 69.35C161.927 63.9876 142.4 37.48 132.4 20.43C128.294 13.4289 130.32 43.94 132.65 51.29C133.174 52.9433 134.32 49.4 134 46.38C133.379 40.52 130.34 35.36 129.01 33.67C120.086 22.3299 128.32 60.62 130.32 65.31C132.125 69.5418 120.44 35.54 104.44 6.52C99.5431 -2.36184 99.0001 1.92 99.3301 6.93C101.405 38.4248 115.66 69.3 116 71.66C118.844 91.3975 101.68 36.02 99.3501 34.34C96.6074 32.3625 98.3201 46.6 100.65 57.59C101.584 61.9967 102.32 63.96 101.67 58.05C99.4897 38.2254 96.3401 22.02 95.3401 24.3C93.6235 28.2137 95.0001 39.12 95.0001 43.57C95.0001 52.1369 85.0201 14.04 81.6901 10.35C68.9068 -3.81528 79.6601 51.3 80.9901 55.31C83.4959 62.8652 76.3601 31.4 71.3501 24.01C69.9094 21.8849 69.0001 37.9 68.3401 48.61C67.1218 68.3785 60.3401 22.02 59.0101 20.01C54.485 13.1714 59.6401 51.84 62.9901 63.66C65.8173 73.6354 56.4001 29.48 51.0101 18.67C43.904 4.41839 55.6401 57.28 58.6601 62.67C66.1492 76.0363 51.0401 31.4 46.3501 24.34C43.9003 20.6524 41.0001 37.26 41.0001 46.28C41.0001 58.5711 36.3401 20.02 35.0101 19C24.6032 11.0188 33.6601 42.64 35.3201 47.63C36.1262 50.0533 37.6401 51.96 38.3201 50.01C39.0001 48.06 39.0001 42.12 38.6701 40.05C36.4904 26.3777 56.3201 77.98 58.9801 79.99C71.0235 89.0905 61.6801 38.06 61.0001 33.35C59.522 23.1123 68.9801 55.96 72.6401 60.31C83.0374 72.6675 76.3401 23.36 76.3301 22.33C76.0984 -1.5339 94.3201 63.98 96.3201 64.67C110.774 69.6566 92.3601 34.72 91.0001 29C88.1508 17.0164 93.6601 49.98 94.9901 53.97C95.6601 55.98 96.3201 57.96 96.6601 54.36C97.0001 50.76 97.0001 41.52 96.6701 37.75C96.3401 33.98 95.6801 35.96 95.6701 38.96C95.6098 57.0411 106.32 71.98 109.31 75.31C110.745 76.9078 112.96 77.32 114.64 76.01C124.398 68.401 121 54.04 121.99 49.36C124.476 37.6088 144.24 79.88 154.64 86.67C163.972 92.7626 159.68 55.44 158.67 42.37C158.487 40.004 157.68 38.04 157.34 38.67C151.333 49.8005 164.3 69.26 169.96 78.28C171.525 80.7737 173.64 76.08 173.99 71.4C174.733 61.4629 171.02 47.42 168.68 36.4C168.307 34.6414 172.32 43.98 174.98 45.99C176.049 46.7981 177.64 44.04 178.32 41.37C181.284 29.7315 177 22.02 177.33 21C178.875 16.2251 182.3 35.28 188.29 44.27C190.831 48.0836 192.96 49.96 193.98 45.37C195 40.78 195 29.56 195 24.77C195 20.8638 199.64 48.56 206.64 66.61C208.002 70.1208 209.64 71.96 211.31 71.66C225.351 69.1377 213 39.36 212.67 37.67C209.798 22.9637 216.96 69.92 220.66 79.66C222.872 85.4833 215.72 48.86 207.06 21.18C204.318 12.4144 202.36 15.28 201.68 18.29C198.798 31.0473 199 43.28 196.35 50.65C191.621 63.8029 155.16 20.76 138.38 14.34C135.244 13.1403 131.08 14 129.04 15.32C127 16.64 127 19.28 126.34 18.33C125.68 17.38 124.36 12.76 123.35 11.37C122.309 9.93716 121 27.2 120.67 44.89C120.535 52.1431 116.34 32.02 114.68 30.67C106.244 23.8093 109 48.64 109 50C109 65.3142 107 24.04 105.01 18.67C101.645 9.58824 101 35.3 100.67 38.65C100.337 42.0311 98.3401 30.02 96.3501 29C91.0731 26.2952 91.0001 47.24 91.0001 60.25C91.0001 71.5525 75.0601 17.44 65.4001 3.09C62.4345 -1.31542 60.3601 2.6 59.6801 5.95C57.1557 18.3864 61.0001 27.3 61.0001 30.65C61.0001 33.9 60.3401 20.7 58.6801 14.71C57.9136 11.9444 56.3601 10.04 55.0201 11.99C42.3931 30.3651 51.6601 51.98 52.6601 53.66C54.1738 56.2032 49.7001 40.74 44.0401 31.39C40.3601 32.6 39.0001 40.62 38.0101 46.63C37.0201 48.02 35.0401 46.04 33.0001 44" stroke="black" stroke-width="2" stroke-linecap="round"/>
</svg>
